<?xml version="1.0" encoding="UTF-8"?>
<!DOCTYPE svg PUBLIC "-//W3C//DTD SVG 1.1//EN" "http://www.w3.org/Graphics/SVG/1.1/DTD/svg11.dtd">
<!-- Creator: CorelDRAW 2018 (64-Bit) -->
<svg xmlns="http://www.w3.org/2000/svg" xml:space="preserve" width="73.8945mm" height="46.0367mm" version="1.1" style="shape-rendering:geometricPrecision; text-rendering:geometricPrecision; image-rendering:optimizeQuality; fill-rule:evenodd; clip-rule:evenodd"
viewBox="0 0 445.97 277.84"
 xmlns:xlink="http://www.w3.org/1999/xlink">
 <defs>
  <style type="text/css">
   <![CDATA[
    .fil1 {fill:white;fill-opacity:0.980392}
    .fil2 {fill:white;fill-opacity:0.988235}
    .fil0 {fill:white;fill-opacity:0.992157}
   ]]>
  </style>
 </defs>
 <g id="Слой_x0020_1">
  <metadata id="CorelCorpID_0Corel-Layer"/>
  <g id="_949072192">
   <g>
    <path class="fil0" d="M-0 0.02c46.3,-0.06 92.6,0 138.9,0.17 16.16,0.33 31.47,4.04 45.95,11.14 19.36,11.03 30.44,27.68 33.25,49.95 1.63,12.84 0.35,25.38 -3.83,37.6 -4.5,11.11 -11.87,19.76 -22.11,25.94 -2.23,1.42 -4.55,2.69 -6.96,3.83 24.21,9.37 38.08,26.95 41.6,52.74 3.7,29.76 -5.3,54.89 -26.98,75.37 -11.45,9.78 -24.68,15.81 -39.69,18.1 -8.64,1.5 -17.34,2.43 -26.11,2.78 -44.68,0.17 -89.35,0.23 -134.03,0.17 0,-92.6 0,-185.2 0,-277.8zm64.4 48.74c20.08,-0.06 40.15,0 60.22,0.17 7.44,0.35 14.75,1.51 21.93,3.48 8.3,2.73 13.47,8.36 15.49,16.88 1.52,7.79 1.05,15.45 -1.39,22.98 -2.79,6.39 -7.49,10.74 -14.1,13.05 -5.62,2.12 -11.42,3.4 -17.41,3.83 -21.58,0.17 -43.17,0.23 -64.75,0.17 0,-20.19 0,-40.38 0,-60.57zm0 106.87c20.54,-0.06 41.08,0 61.62,0.17 35.3,0.36 48.59,17.59 39.86,51.7 -4.29,10.56 -12.01,17.11 -23.15,19.67 -3.9,0.87 -7.85,1.45 -11.84,1.74 -22.16,0.17 -44.33,0.23 -66.49,0.17 0,-24.48 0,-48.97 0,-73.45z"/>
   </g>
   <g>
    <path class="fil1" d="M290.68 11.51c37.36,0 74.73,0 112.09,0 0,9.4 0,18.8 0,28.2 -37.36,0 -74.73,0 -112.09,0 0,-9.4 0,-18.8 0,-28.2z"/>
   </g>
   <g>
    <path class="fil2" d="M340.81 64.77c18.35,-0.87 35.99,2.21 52.91,9.22 17.49,8.32 30.77,21.02 39.86,38.12 6.59,12.79 10.42,26.36 11.49,40.73 0.71,10.55 1,21.11 0.87,31.68 -48.27,-0.06 -96.54,0 -144.82,0.17 0.39,9.63 2.77,18.73 7.14,27.33 7.11,11.25 17.26,18.04 30.46,20.36 9.13,1.44 18.18,1.09 27.15,-1.04 10.75,-3.49 18.63,-10.28 23.67,-20.37 17.87,-0.35 35.74,-0.46 53.61,-0.35 -1.11,8.03 -3.84,15.45 -8.18,22.28 -19.09,28.19 -45.84,42.52 -80.24,42.99 -29.28,1.34 -55.16,-7.25 -77.63,-25.76 -11.5,-10.4 -19.33,-23.11 -23.5,-38.12 -4.31,-16.32 -5.94,-32.91 -4.87,-49.78 0.53,-20.11 5.87,-38.79 16.01,-56.05 14.56,-21.48 34.69,-34.65 60.4,-39.51 5.25,-0.83 10.47,-1.47 15.67,-1.91zm4.53 43.17c15.09,-0.57 27.56,4.77 37.42,16.01 5.24,7.71 8.2,16.24 8.88,25.59 -29.71,0.29 -59.41,0.23 -89.12,-0.17 1.69,-12.61 7.03,-23.34 16.01,-32.2 7.93,-6.01 16.86,-9.09 26.81,-9.23z"/>
   </g>
  </g>
 </g>
</svg>
