<?xml version="1.0" encoding="UTF-8"?>
<!DOCTYPE svg PUBLIC "-//W3C//DTD SVG 1.1//EN" "http://www.w3.org/Graphics/SVG/1.1/DTD/svg11.dtd">
<!-- Creator: CorelDRAW 2018 (64-Bit) -->
<svg xmlns="http://www.w3.org/2000/svg" xml:space="preserve" width="54.422mm" height="52.7287mm" version="1.1" style="shape-rendering:geometricPrecision; text-rendering:geometricPrecision; image-rendering:optimizeQuality; fill-rule:evenodd; clip-rule:evenodd"
viewBox="0 0 175.46 170.01"
 xmlns:xlink="http://www.w3.org/1999/xlink">
 <defs>
  <style type="text/css">
   <![CDATA[
    .fil0 {fill:black;fill-opacity:0.996078}
   ]]>
  </style>
 </defs>
 <g id="Слой_x0020_1">
  <metadata id="CorelCorpID_0Corel-Layer"/>
  <g id="_199669968">
   <g>
    <path class="fil0" d="M83.29 0.04c27.66,-0.76 50.87,8.91 69.64,29.02 16.93,19.33 24.32,41.88 22.17,67.64 -2.95,24.55 -13.9,44.64 -32.85,60.27 -6.71,5.36 -14.06,9.7 -22.05,13.03 -3.59,-0.5 -5.74,-2.54 -6.46,-6.11 -0.04,-6.66 -0.08,-13.33 -0.11,-20 -0.48,-7.85 -3.28,-14.73 -8.4,-20.62 5.61,-1.13 10.94,-3.04 16,-5.71 12.86,-7.46 18.82,-18.68 17.88,-33.65 -0.42,-3.94 -1.45,-7.71 -3.09,-11.31 -0.83,-1.7 -1.69,-3.38 -2.57,-5.03 1.19,-4.38 1.88,-8.83 2.06,-13.37 0.05,-3.37 -0.66,-6.57 -2.11,-9.6 -0.87,-1.41 -1.92,-2.68 -3.14,-3.83 -8.4,-0.38 -15.87,2.04 -22.4,7.26 -11.52,-4.11 -23.21,-4.66 -35.08,-1.66 -1.74,0.46 -3.46,1.02 -5.14,1.66 -5.08,-3.95 -10.83,-6.33 -17.25,-7.14 -1.71,-0.17 -3.43,-0.2 -5.14,-0.11 -2.94,2.54 -4.6,5.76 -4.97,9.66 -0.4,3.91 -0.21,7.8 0.57,11.65 0.36,1.84 0.76,3.66 1.2,5.48 -0.01,0.21 -0.07,0.4 -0.17,0.57 -4.37,6.66 -6.2,13.97 -5.48,21.94 1.03,11.46 6.38,20.24 16.05,26.34 5.66,3.3 11.72,5.58 18.17,6.86 -1.04,1.19 -2.01,2.42 -2.91,3.71 -1.19,0.62 -2.47,0.98 -3.83,1.09 -3.96,0.38 -7.92,0.46 -11.88,0.23 -1.68,-0.29 -3.16,-0.97 -4.46,-2.06 -1.83,-1.89 -3.56,-3.85 -5.2,-5.88 -2.64,-2.87 -5.78,-4.98 -9.43,-6.34 -1.79,-0.48 -3.51,-0.29 -5.14,0.57 -1.75,1.21 -2.26,2.83 -1.54,4.86 0.17,0.49 0.4,0.95 0.69,1.37 1.21,0.99 2.35,2.05 3.43,3.2 1.3,1.68 2.37,3.51 3.2,5.48 1.05,2.82 2.19,5.6 3.43,8.34 2.8,4.4 6.78,7.09 11.94,8.06 1.25,0.21 2.5,0.32 3.77,0.34 3.16,0.06 6.32,0.08 9.48,0.06 0.02,5.79 0,11.58 -0.06,17.37 -0.66,2.65 -2.25,4.53 -4.74,5.66 -0.45,0.17 -0.9,0.3 -1.37,0.4 -16.49,-6.56 -29.88,-17.07 -40.16,-31.54 -13.15,-19.3 -18.1,-40.55 -14.85,-63.76 4.02,-23.39 15.35,-42.3 33.99,-56.73 14.33,-10.66 30.44,-16.55 48.33,-17.65z"/>
   </g>
  </g>
 </g>
</svg>
