<?xml version="1.0" encoding="UTF-8"?>
<!DOCTYPE svg PUBLIC "-//W3C//DTD SVG 1.1//EN" "http://www.w3.org/Graphics/SVG/1.1/DTD/svg11.dtd">
<!-- Creator: CorelDRAW 2018 (64-Bit) -->
<svg xmlns="http://www.w3.org/2000/svg" xml:space="preserve" width="43.7552mm" height="46.0322mm" version="1.1" style="shape-rendering:geometricPrecision; text-rendering:geometricPrecision; image-rendering:optimizeQuality; fill-rule:evenodd; clip-rule:evenodd"
viewBox="0 0 132.79 139.7"
 xmlns:xlink="http://www.w3.org/1999/xlink">
 <defs>
  <style type="text/css">
   <![CDATA[
    .fil1 {fill:#FDFDFD}
    .fil0 {fill:#373435}
   ]]>
  </style>
 </defs>
 <g id="Слой_x0020_1">
  <metadata id="CorelCorpID_0Corel-Layer"/>
  <g id="_914162688">
   <path class="fil0" d="M14.25 63.83c-0.57,-15.29 -0.76,-30.68 -0.57,-46.16 -4.56,0 -9.12,0 -13.68,0 0,-5.89 0,-11.78 0,-17.67 14.25,0 28.49,0 42.74,0 0.1,10.07 0,20.14 -0.28,30.2 -9.33,11.32 -18.73,22.52 -28.21,33.62z"/>
   <path class="fil1" d="M132.79 139.06c-12.06,0.57 -24.22,0.76 -36.47,0.57 -14.04,-18.42 -28.1,-36.84 -42.17,-55.28 -3.61,4.17 -7.22,8.35 -10.83,12.54 -0.57,14.15 -0.76,28.4 -0.57,42.74 -9.69,0 -19.38,0 -29.06,0 0,-13.3 0,-26.6 0,-39.89 26.14,-32.99 52.36,-65.95 78.65,-98.88 12.35,-0.38 24.7,-0.38 37.04,0 -18.65,21.5 -37.08,43.15 -55.28,64.97 19.48,24.51 39.05,48.92 58.7,73.23z"/>
  </g>
 </g>
</svg>
