<?xml version="1.0" encoding="UTF-8"?>
<!DOCTYPE svg PUBLIC "-//W3C//DTD SVG 1.1//EN" "http://www.w3.org/Graphics/SVG/1.1/DTD/svg11.dtd">
<!-- Creator: CorelDRAW -->
<svg xmlns="http://www.w3.org/2000/svg" xml:space="preserve" width="440px" height="80px" version="1.1" style="shape-rendering:geometricPrecision; text-rendering:geometricPrecision; image-rendering:optimizeQuality; fill-rule:evenodd; clip-rule:evenodd"
viewBox="0 0 24.952 4.559"
 xmlns:xlink="http://www.w3.org/1999/xlink"
 xmlns:xodm="http://www.corel.com/coreldraw/odm/2003">
 <defs>
  <style type="text/css">
   <![CDATA[
    .fil0 {fill:black}
   ]]>
  </style>
 </defs>
 <g id="Слой_x0020_1">
  <metadata id="CorelCorpID_0Corel-Layer"/>
  <path class="fil0" d="M0 0.056l1.707 0c0.417,0 0.787,0.081 1.111,0.243 0.323,0.161 0.574,0.39 0.753,0.686 0.179,0.296 0.268,0.637 0.268,1.024 0,0.387 -0.089,0.728 -0.268,1.024 -0.179,0.295 -0.43,0.524 -0.753,0.686 -0.324,0.162 -0.694,0.243 -1.111,0.243l-1.707 0 0 -3.906zm1.674 3.292c0.286,0 0.538,-0.055 0.756,-0.165 0.218,-0.11 0.385,-0.266 0.502,-0.468 0.117,-0.203 0.176,-0.438 0.176,-0.706 0,-0.268 -0.059,-0.503 -0.176,-0.706 -0.117,-0.203 -0.284,-0.359 -0.502,-0.469 -0.218,-0.11 -0.47,-0.164 -0.756,-0.164l-0.949 0 0 2.678 0.949 0zm7.298 -3.348c0.458,0 0.815,0.133 1.071,0.399 0.257,0.266 0.385,0.648 0.385,1.147l0 2.416 -0.725 0 0 -2.389c0,-0.308 -0.081,-0.542 -0.243,-0.7 -0.161,-0.158 -0.373,-0.237 -0.633,-0.237 -0.29,0 -0.522,0.082 -0.695,0.246 -0.173,0.163 -0.259,0.414 -0.259,0.753l0 2.327 -0.725 0 0 -2.389c0,-0.312 -0.076,-0.546 -0.226,-0.703 -0.151,-0.156 -0.357,-0.234 -0.617,-0.234 -0.294,0 -0.529,0.083 -0.706,0.248 -0.176,0.166 -0.265,0.416 -0.265,0.751l0 2.327 -0.725 0 0 -3.906 0.703 0 0 0.513c0.119,-0.182 0.281,-0.323 0.485,-0.421 0.205,-0.099 0.441,-0.148 0.709,-0.148 0.275,0 0.515,0.052 0.72,0.156 0.204,0.104 0.359,0.251 0.463,0.441 0.13,-0.19 0.308,-0.337 0.533,-0.441 0.225,-0.104 0.475,-0.156 0.75,-0.156zm3.616 0.664l0 2.689 0.72 0 0 0.609 -2.16 0 0 -0.609 0.72 0 0 -2.689 -0.72 0 0 -0.608 2.16 0 0 0.608 -0.72 0zm4.185 0.363c-0.369,-0.209 -0.752,-0.335 -1.15,-0.38l0 3.315 -0.725 0 0 -3.315c-0.402,0.045 -0.787,0.171 -1.155,0.38l-0.251 -0.558c0.26,-0.157 0.54,-0.274 0.839,-0.352 0.3,-0.078 0.608,-0.117 0.924,-0.117 0.316,0 0.625,0.039 0.926,0.117 0.301,0.078 0.582,0.195 0.843,0.352l-0.251 0.558zm3.286 2.935l-0.798 -1.144c-0.033,0.003 -0.084,0.005 -0.151,0.005l-0.881 0 0 1.139 -0.726 0 0 -3.906 1.607 0c0.339,0 0.634,0.056 0.885,0.167 0.251,0.112 0.443,0.272 0.577,0.48 0.134,0.208 0.201,0.456 0.201,0.742 0,0.294 -0.071,0.547 -0.215,0.759 -0.143,0.212 -0.348,0.37 -0.616,0.474l0.898 1.284 -0.781 0zm-0.017 -2.517c0,-0.249 -0.082,-0.441 -0.245,-0.575 -0.164,-0.133 -0.404,-0.2 -0.72,-0.2l-0.848 0 0 1.556 0.848 0c0.316,0 0.556,-0.068 0.72,-0.203 0.163,-0.136 0.245,-0.329 0.245,-0.578zm4.91 -1.389l0 2.712c0,0.576 -0.157,1.019 -0.471,1.327 -0.314,0.309 -0.749,0.464 -1.303,0.464 -0.327,0 -0.625,-0.048 -0.893,-0.143 -0.268,-0.095 -0.494,-0.229 -0.68,-0.404l0.295 -0.558c0.346,0.312 0.768,0.469 1.267,0.469 0.707,0 1.06,-0.374 1.06,-1.122l0 -0.296c-0.264,0.335 -0.647,0.502 -1.149,0.502 -0.495,0 -0.878,-0.141 -1.15,-0.424 -0.271,-0.282 -0.407,-0.688 -0.407,-1.216l0 -1.311 0.725 0 0 1.278c0,0.342 0.083,0.601 0.248,0.778 0.166,0.177 0.398,0.265 0.695,0.265 0.316,0 0.568,-0.094 0.756,-0.282 0.188,-0.188 0.282,-0.466 0.282,-0.834l0 -1.205 0.725 0z"/>
 </g>
</svg>
