<?xml version="1.0" encoding="UTF-8"?>
<!DOCTYPE svg PUBLIC "-//W3C//DTD SVG 1.1//EN" "http://www.w3.org/Graphics/SVG/1.1/DTD/svg11.dtd">
<!-- Creator: CorelDRAW -->
<svg xmlns="http://www.w3.org/2000/svg" xml:space="preserve" width="1269px" height="83px" version="1.1" style="shape-rendering:geometricPrecision; text-rendering:geometricPrecision; image-rendering:optimizeQuality; fill-rule:evenodd; clip-rule:evenodd"
viewBox="0 0 430.271 28.004"
 xmlns:xlink="http://www.w3.org/1999/xlink"
 xmlns:xodm="http://www.corel.com/coreldraw/odm/2003">
 <defs>
  <style type="text/css">
   <![CDATA[
    .fil1 {fill:black}
    .fil0 {fill:#D5FF41}
    .fil2 {fill:black;fill-rule:nonzero}
   ]]>
  </style>
 </defs>
 <g id="Слой_x0020_1">
  <metadata id="CorelCorpID_0Corel-Layer"/>
  <rect class="fil0" x="163.589" width="79.319" height="24.438" rx="15.97" ry="9.646"/>
  <g id="_105553320216320">
   <rect class="fil1" x="196.63" y="4.435" width="14.215" height="2.345"/>
   <rect class="fil1" transform="matrix(0.285294 -2.85496E-001 0.208905 0.209053 194.263 19.3184)" width="51.837" height="8.417"/>
   <rect class="fil1" transform="matrix(-2.19537E-014 -2.74417E-001 0.278356 -2.2333E-014 208.502 18.6598)" width="51.837" height="8.417"/>
  </g>
  <path class="fil2" d="M0 1.104l10.2 0c2.489,0 4.7,0.483 6.633,1.45 1.934,0.967 3.434,2.333 4.5,4.1 1.067,1.767 1.6,3.806 1.6,6.117 0,2.311 -0.533,4.35 -1.6,6.116 -1.066,1.767 -2.566,3.134 -4.5,4.101 -1.933,0.966 -4.144,1.45 -6.633,1.45l-10.2 0 0 -23.334zm10 19.667c1.711,0 3.217,-0.328 4.517,-0.984 1.3,-0.655 2.3,-1.588 3,-2.8 0.7,-1.211 1.05,-2.616 1.05,-4.216 0,-1.6 -0.35,-3.006 -1.05,-4.217 -0.7,-1.211 -1.7,-2.144 -3,-2.8 -1.3,-0.656 -2.806,-0.983 -4.517,-0.983l-5.667 0 0 16 5.667 0zm43.6 -20c2.734,0 4.867,0.794 6.4,2.383 1.534,1.589 2.3,3.872 2.3,6.85l0 14.434 -4.333 0 0 -14.267c0,-1.845 -0.483,-3.239 -1.45,-4.184 -0.967,-0.944 -2.228,-1.416 -3.783,-1.416 -1.734,0 -3.117,0.489 -4.15,1.466 -1.034,0.978 -1.55,2.478 -1.55,4.5l0 13.901 -4.334 0 0 -14.267c0,-1.867 -0.45,-3.267 -1.35,-4.2 -0.9,-0.934 -2.128,-1.4 -3.683,-1.4 -1.756,0 -3.161,0.494 -4.217,1.483 -1.055,0.989 -1.583,2.483 -1.583,4.483l0 13.901 -4.333 0 0 -23.334 4.199 0 0 3.067c0.712,-1.089 1.678,-1.928 2.9,-2.517 1.223,-0.589 2.634,-0.883 4.234,-0.883 1.644,0 3.078,0.311 4.3,0.933 1.222,0.622 2.144,1.5 2.767,2.633 0.777,-1.133 1.838,-2.011 3.183,-2.633 1.344,-0.622 2.839,-0.933 4.483,-0.933zm21.601 3.966l0 16.067 4.3 0 0 3.634 -12.9 0 0 -3.634 4.3 0 0 -16.067 -4.3 0 0 -3.633 12.9 0 0 3.633 -4.3 0zm25 2.167c-2.2,-1.244 -4.489,-2 -6.867,-2.267l0 19.801 -4.333 0 0 -19.801c-2.4,0.267 -4.7,1.023 -6.9,2.267l-1.5 -3.333c1.555,-0.934 3.227,-1.634 5.016,-2.1 1.789,-0.467 3.628,-0.7 5.517,-0.7 1.889,0 3.733,0.233 5.533,0.7 1.801,0.466 3.478,1.166 5.034,2.1l-1.5 3.333zm19.633 17.534l-4.766 -6.834c-0.2,0.022 -0.5,0.033 -0.9,0.033l-5.267 0 0 6.801 -4.333 0 0 -23.334 9.6 0c2.022,0 3.783,0.333 5.283,1 1.5,0.667 2.65,1.622 3.45,2.867 0.8,1.244 1.2,2.722 1.2,4.433 0,1.756 -0.428,3.267 -1.283,4.533 -0.856,1.267 -2.084,2.212 -3.684,2.834l5.367 7.667 -4.667 0zm-0.1 -15.034c0,-1.489 -0.489,-2.633 -1.466,-3.433 -0.978,-0.8 -2.412,-1.2 -4.3,-1.2l-5.067 0 0 9.3 5.067 0c1.888,0 3.322,-0.406 4.3,-1.217 0.977,-0.811 1.466,-1.961 1.466,-3.45zm29.334 -8.3l0 16.2c0,3.445 -0.939,6.089 -2.817,7.933 -1.878,1.845 -4.472,2.767 -7.783,2.767 -1.956,0 -3.734,-0.283 -5.334,-0.85 -1.6,-0.566 -2.955,-1.372 -4.066,-2.416l1.766 -3.334c2.067,1.867 4.589,2.8 7.567,2.8 4.222,0 6.334,-2.233 6.334,-6.7l0 -1.767c-1.578,2 -3.867,3 -6.867,3 -2.956,0 -5.245,-0.844 -6.867,-2.533 -1.622,-1.689 -2.433,-4.111 -2.433,-7.267l0 -7.833 4.333 0 0 7.633c0,2.045 0.495,3.595 1.483,4.65 0.989,1.056 2.373,1.584 4.15,1.584 1.889,0 3.395,-0.561 4.517,-1.684 1.122,-1.122 1.684,-2.783 1.684,-4.983l0 -7.2 4.333 0zm122.535 23.334l-4.767 -6.834c-0.2,0.022 -0.5,0.033 -0.9,0.033l-5.267 0 0 6.801 -4.333 0 0 -23.334 9.6 0c2.022,0 3.784,0.333 5.284,1 1.5,0.667 2.65,1.622 3.45,2.867 0.8,1.244 1.2,2.722 1.2,4.433 0,1.756 -0.428,3.267 -1.284,4.533 -0.855,1.267 -2.083,2.212 -3.683,2.834l5.367 7.667 -4.667 0zm-0.1 -15.034c0,-1.489 -0.489,-2.633 -1.467,-3.433 -0.978,-0.8 -2.411,-1.2 -4.3,-1.2l-5.067 0 0 9.3 5.067 0c1.889,0 3.322,-0.406 4.3,-1.217 0.978,-0.811 1.467,-1.961 1.467,-3.45zm29.334 -8.3l0 16.2c0,3.445 -0.939,6.089 -2.817,7.933 -1.878,1.845 -4.472,2.767 -7.784,2.767 -1.955,0 -3.733,-0.283 -5.333,-0.85 -1.6,-0.566 -2.956,-1.372 -4.067,-2.416l1.767 -3.334c2.067,1.867 4.589,2.8 7.567,2.8 4.222,0 6.333,-2.233 6.333,-6.7l0 -1.767c-1.578,2 -3.866,3 -6.867,3 -2.955,0 -5.244,-0.844 -6.866,-2.533 -1.622,-1.689 -2.434,-4.111 -2.434,-7.267l0 -7.833 4.334 0 0 7.633c0,2.045 0.494,3.595 1.483,4.65 0.989,1.056 2.372,1.584 4.15,1.584 1.889,0 3.395,-0.561 4.517,-1.684 1.122,-1.122 1.683,-2.783 1.683,-4.983l0 -7.2 4.334 0zm16.866 23.667c-2.355,0 -4.483,-0.517 -6.383,-1.55 -1.9,-1.034 -3.389,-2.461 -4.467,-4.284 -1.077,-1.822 -1.616,-3.877 -1.616,-6.166 0,-2.289 0.544,-4.345 1.633,-6.167 1.089,-1.822 2.583,-3.25 4.483,-4.283 1.9,-1.034 4.028,-1.55 6.384,-1.55 1.911,0 3.655,0.333 5.233,1 1.578,0.666 2.911,1.633 4,2.9l-2.8 2.633c-1.689,-1.822 -3.767,-2.733 -6.233,-2.733 -1.6,0 -3.034,0.35 -4.3,1.05 -1.267,0.7 -2.256,1.672 -2.967,2.916 -0.711,1.245 -1.067,2.656 -1.067,4.234 0,1.578 0.356,2.989 1.067,4.233 0.711,1.245 1.7,2.217 2.967,2.917 1.266,0.7 2.7,1.05 4.3,1.05 2.466,0 4.544,-0.922 6.233,-2.767l2.8 2.667c-1.089,1.266 -2.428,2.233 -4.017,2.9 -1.589,0.667 -3.338,1 -5.25,1zm34.167 -23.667l0 23.334 -4.333 0 0 -10.001 -12.067 0 0 10.001 -4.333 0 0 -23.334 4.333 0 0 9.633 12.067 0 0 -9.633 4.333 0zm14.3 13.567l-3.7 3.8 0 5.967 -4.333 0 0 -23.334 4.333 0 0 11.967 11.534 -11.967 4.867 0 -9.801 10.433 10.4 12.901 -5.066 0 -8.234 -9.767zm26.334 10.1c-2.378,0 -4.522,-0.517 -6.433,-1.55 -1.912,-1.034 -3.411,-2.467 -4.5,-4.3 -1.089,-1.834 -1.634,-3.884 -1.634,-6.15 0,-2.267 0.545,-4.317 1.634,-6.15 1.089,-1.834 2.588,-3.267 4.5,-4.3 1.911,-1.034 4.055,-1.55 6.433,-1.55 2.378,0 4.522,0.516 6.433,1.55 1.912,1.033 3.412,2.461 4.5,4.283 1.089,1.822 1.634,3.878 1.634,6.167 0,2.289 -0.545,4.344 -1.634,6.166 -1.088,1.823 -2.588,3.25 -4.5,4.284 -1.911,1.033 -4.055,1.55 -6.433,1.55zm0 -3.8c1.556,0 2.956,-0.35 4.2,-1.05 1.245,-0.7 2.222,-1.678 2.933,-2.934 0.711,-1.255 1.067,-2.661 1.067,-4.216 0,-1.556 -0.356,-2.961 -1.067,-4.217 -0.711,-1.255 -1.688,-2.233 -2.933,-2.933 -1.244,-0.7 -2.644,-1.05 -4.2,-1.05 -1.556,0 -2.956,0.35 -4.2,1.05 -1.244,0.7 -2.222,1.678 -2.933,2.933 -0.712,1.256 -1.067,2.661 -1.067,4.217 0,1.555 0.355,2.961 1.067,4.216 0.711,1.256 1.689,2.234 2.933,2.934 1.244,0.7 2.644,1.05 4.2,1.05zm37.767 -19.867l-10.167 23.334 -4.267 0 -10.2 -23.334 4.7 0 7.767 18 7.834 -18 4.333 0z"/>
 </g>
</svg>
