<?xml version="1.0" encoding="UTF-8"?>
<!DOCTYPE svg PUBLIC "-//W3C//DTD SVG 1.1//EN" "http://www.w3.org/Graphics/SVG/1.1/DTD/svg11.dtd">
<!-- Creator: CorelDRAW -->
<svg xmlns="http://www.w3.org/2000/svg" xml:space="preserve" width="513px" height="80px" version="1.1" style="shape-rendering:geometricPrecision; text-rendering:geometricPrecision; image-rendering:optimizeQuality; fill-rule:evenodd; clip-rule:evenodd"
viewBox="0 0 41.653 6.522"
 xmlns:xlink="http://www.w3.org/1999/xlink"
 xmlns:xodm="http://www.corel.com/coreldraw/odm/2003">
 <defs>
  <style type="text/css">
   <![CDATA[
    .fil0 {fill:black}
   ]]>
  </style>
 </defs>
 <g id="Слой_x0020_1">
  <metadata id="CorelCorpID_0Corel-Layer"/>
  <path class="fil0" d="M3.656 5.668l-1.142 -1.637c-0.047,0.005 -0.119,0.008 -0.215,0.008l-1.261 0 0 1.629 -1.038 0 0 -5.588 2.299 0c0.484,0 0.906,0.08 1.265,0.239 0.359,0.16 0.635,0.389 0.826,0.687 0.192,0.298 0.288,0.652 0.288,1.061 0,0.421 -0.103,0.783 -0.308,1.086 -0.204,0.303 -0.499,0.53 -0.882,0.679l1.286 1.836 -1.118 0zm-0.024 -3.601c0,-0.356 -0.117,-0.63 -0.351,-0.822 -0.234,-0.191 -0.578,-0.287 -1.03,-0.287l-1.213 0 0 2.227 1.213 0c0.452,0 0.796,-0.097 1.03,-0.291 0.234,-0.195 0.351,-0.47 0.351,-0.827zm7.025 -1.987l0 3.879c0,0.825 -0.225,1.458 -0.675,1.9 -0.45,0.442 -1.071,0.663 -1.864,0.663 -0.468,0 -0.894,-0.068 -1.277,-0.204 -0.383,-0.136 -0.708,-0.328 -0.974,-0.579l0.423 -0.798c0.495,0.447 1.099,0.671 1.812,0.671 1.011,0 1.517,-0.535 1.517,-1.605l0 -0.423c-0.378,0.479 -0.926,0.719 -1.644,0.719 -0.708,0 -1.256,-0.203 -1.645,-0.607 -0.388,-0.405 -0.583,-0.985 -0.583,-1.74l0 -1.876 1.038 0 0 1.828c0,0.489 0.119,0.861 0.355,1.113 0.237,0.253 0.568,0.38 0.994,0.38 0.453,0 0.813,-0.135 1.082,-0.404 0.269,-0.268 0.403,-0.666 0.403,-1.193l0 -1.724 1.038 0zm4.039 5.667c-0.564,0 -1.074,-0.123 -1.529,-0.371 -0.455,-0.247 -0.811,-0.589 -1.07,-1.026 -0.258,-0.436 -0.387,-0.928 -0.387,-1.476 0,-0.548 0.131,-1.041 0.391,-1.477 0.261,-0.436 0.619,-0.778 1.074,-1.026 0.455,-0.247 0.965,-0.371 1.529,-0.371 0.457,0 0.875,0.08 1.253,0.239 0.378,0.16 0.697,0.392 0.958,0.695l-0.671 0.631c-0.404,-0.437 -0.902,-0.655 -1.492,-0.655 -0.383,0 -0.727,0.084 -1.03,0.251 -0.303,0.168 -0.54,0.401 -0.71,0.699 -0.171,0.298 -0.256,0.636 -0.256,1.014 0,0.378 0.085,0.715 0.256,1.013 0.17,0.299 0.407,0.531 0.71,0.699 0.303,0.168 0.647,0.251 1.03,0.251 0.59,0 1.088,-0.22 1.492,-0.662l0.671 0.638c-0.261,0.304 -0.581,0.535 -0.962,0.695 -0.38,0.16 -0.8,0.239 -1.257,0.239zm8.182 -5.667l0 5.588 -1.038 0 0 -2.395 -2.89 0 0 2.395 -1.037 0 0 -5.588 1.037 0 0 2.307 2.89 0 0 -2.307 1.038 0zm3.424 3.249l-0.886 0.91 0 1.429 -1.037 0 0 -5.588 1.037 0 0 2.866 2.762 -2.866 1.166 0 -2.347 2.498 2.49 3.09 -1.213 0 -1.972 -2.339zm6.307 2.418c-0.57,0 -1.083,-0.123 -1.541,-0.371 -0.458,-0.247 -0.817,-0.59 -1.078,-1.03 -0.26,-0.439 -0.391,-0.929 -0.391,-1.472 0,-0.543 0.131,-1.034 0.391,-1.473 0.261,-0.439 0.62,-0.782 1.078,-1.03 0.458,-0.247 0.971,-0.371 1.541,-0.371 0.569,0 1.083,0.124 1.54,0.371 0.458,0.248 0.817,0.59 1.078,1.026 0.261,0.436 0.391,0.929 0.391,1.477 0,0.548 -0.13,1.04 -0.391,1.476 -0.261,0.437 -0.62,0.779 -1.078,1.026 -0.457,0.248 -0.971,0.371 -1.54,0.371zm0 -0.91c0.372,0 0.707,-0.083 1.005,-0.251 0.298,-0.168 0.533,-0.402 0.703,-0.703 0.17,-0.3 0.255,-0.637 0.255,-1.009 0,-0.373 -0.085,-0.709 -0.255,-1.01 -0.17,-0.301 -0.405,-0.535 -0.703,-0.703 -0.298,-0.167 -0.633,-0.251 -1.005,-0.251 -0.373,0 -0.708,0.084 -1.006,0.251 -0.298,0.168 -0.532,0.402 -0.703,0.703 -0.17,0.301 -0.255,0.637 -0.255,1.01 0,0.372 0.085,0.709 0.255,1.009 0.171,0.301 0.405,0.535 0.703,0.703 0.298,0.168 0.633,0.251 1.006,0.251zm9.044 -4.757l-2.435 5.588 -1.022 0 -2.442 -5.588 1.125 0 1.86 4.31 1.876 -4.31 1.038 0z"/>
 </g>
</svg>
