<?xml version="1.0" encoding="UTF-8"?>
<!DOCTYPE svg PUBLIC "-//W3C//DTD SVG 1.1//EN" "http://www.w3.org/Graphics/SVG/1.1/DTD/svg11.dtd">
<!-- Creator: CorelDRAW -->
<svg xmlns="http://www.w3.org/2000/svg" xml:space="preserve" width="1077px" height="85px" version="1.1" style="shape-rendering:geometricPrecision; text-rendering:geometricPrecision; image-rendering:optimizeQuality; fill-rule:evenodd; clip-rule:evenodd"
viewBox="0 0 147.044 11.569"
 xmlns:xlink="http://www.w3.org/1999/xlink"
 xmlns:xodm="http://www.corel.com/coreldraw/odm/2003">
 <defs>
  <style type="text/css">
   <![CDATA[
    .fil0 {fill:black;fill-rule:nonzero}
   ]]>
  </style>
 </defs>
 <g id="Слой_x0020_1">
  <metadata id="CorelCorpID_0Corel-Layer"/>
  <path class="fil0" d="M5.865 4.671c0.564,0.179 1.005,0.467 1.322,0.865 0.318,0.398 0.477,0.866 0.477,1.403 0,0.564 -0.184,1.053 -0.551,1.469 -0.366,0.417 -0.856,0.736 -1.469,0.96 -0.613,0.224 -1.282,0.336 -2.007,0.336 -0.626,0 -1.255,-0.088 -1.885,-0.262 -0.631,-0.175 -1.215,-0.436 -1.752,-0.785l0.564 -1.275c0.411,0.277 0.868,0.49 1.369,0.637 0.501,0.148 0.997,0.222 1.489,0.222 0.707,0 1.296,-0.139 1.765,-0.416 0.47,-0.278 0.705,-0.658 0.705,-1.141 0,-0.412 -0.17,-0.725 -0.51,-0.94 -0.34,-0.214 -0.81,-0.322 -1.409,-0.322l-2.188 0 0 -1.369 2.054 0c0.518,0 0.926,-0.107 1.221,-0.322 0.295,-0.215 0.443,-0.505 0.443,-0.872 0,-0.439 -0.199,-0.779 -0.597,-1.02 -0.399,-0.242 -0.906,-0.363 -1.524,-0.363 -0.42,0 -0.854,0.061 -1.302,0.182 -0.447,0.12 -0.868,0.297 -1.261,0.53l-0.551 -1.41c0.484,-0.259 0.996,-0.454 1.537,-0.583 0.542,-0.13 1.081,-0.195 1.617,-0.195 0.698,0 1.34,0.107 1.926,0.322 0.586,0.215 1.054,0.521 1.403,0.919 0.349,0.399 0.523,0.866 0.523,1.403 0,0.465 -0.125,0.872 -0.375,1.221 -0.251,0.349 -0.595,0.618 -1.034,0.806zm13.448 3.422l0 3.476 -1.61 0 0 -2 -7.409 0 -0.013 2 -1.611 0 0.014 -3.476 1.14 0 0 -3.852c0,-0.895 0.173,-1.655 0.517,-2.281 0.345,-0.627 0.83,-1.103 1.456,-1.43 0.627,-0.326 1.356,-0.49 2.188,-0.49 0.841,0 1.575,0.161 2.201,0.483 0.627,0.323 1.112,0.799 1.456,1.43 0.345,0.631 0.517,1.393 0.517,2.288l0 3.852 1.154 0zm-2.899 0l0 -4.013c0,-0.823 -0.214,-1.447 -0.644,-1.872 -0.429,-0.425 -1.024,-0.638 -1.785,-0.638 -0.76,0 -1.353,0.213 -1.778,0.638 -0.425,0.425 -0.638,1.049 -0.638,1.872l0 4.013 4.845 0zm11.838 0.577c-0.421,0.331 -0.962,0.586 -1.624,0.765 -0.662,0.179 -1.378,0.269 -2.147,0.269 -0.904,0 -1.671,-0.117 -2.302,-0.349 -0.631,-0.233 -1.107,-0.555 -1.43,-0.967 -0.322,-0.411 -0.483,-0.885 -0.483,-1.422 0,-0.519 0.143,-0.971 0.43,-1.356 0.286,-0.385 0.671,-0.666 1.154,-0.845 -0.367,-0.197 -0.655,-0.472 -0.866,-0.826 -0.21,-0.353 -0.315,-0.749 -0.315,-1.188 0,-0.501 0.15,-0.955 0.449,-1.362 0.3,-0.407 0.75,-0.734 1.349,-0.98 0.6,-0.246 1.338,-0.369 2.215,-0.369 0.59,0 1.168,0.063 1.731,0.188 0.564,0.125 1.056,0.295 1.477,0.51l-0.497 1.383c-0.787,-0.412 -1.669,-0.618 -2.644,-0.618 -0.77,0 -1.349,0.123 -1.738,0.369 -0.389,0.246 -0.584,0.575 -0.584,0.987 0,0.402 0.143,0.709 0.43,0.919 0.286,0.21 0.706,0.316 1.261,0.315l2.483 0.001 0 1.449 -2.577 0c-0.635,0 -1.127,0.11 -1.476,0.329 -0.349,0.219 -0.524,0.543 -0.524,0.973 0,0.429 0.211,0.769 0.631,1.02 0.421,0.25 1.056,0.376 1.906,0.376 0.591,0 1.165,-0.081 1.725,-0.242 0.559,-0.161 1.026,-0.385 1.402,-0.671l0.564 1.342zm5.637 1.034c-0.949,0 -1.805,-0.208 -2.57,-0.624 -0.765,-0.417 -1.365,-0.991 -1.799,-1.725 -0.434,-0.734 -0.651,-1.561 -0.651,-2.483 0,-0.922 0.22,-1.749 0.658,-2.483 0.438,-0.734 1.04,-1.309 1.805,-1.725 0.765,-0.416 1.622,-0.624 2.57,-0.624 0.77,0 1.472,0.134 2.108,0.403 0.635,0.268 1.172,0.658 1.61,1.168l-1.127 1.06c-0.68,-0.734 -1.517,-1.101 -2.51,-1.101 -0.644,0 -1.221,0.141 -1.731,0.423 -0.51,0.282 -0.909,0.673 -1.195,1.174 -0.286,0.501 -0.429,1.07 -0.429,1.705 0,0.635 0.143,1.203 0.429,1.704 0.286,0.502 0.685,0.893 1.195,1.175 0.51,0.282 1.087,0.423 1.731,0.423 0.993,0 1.83,-0.372 2.51,-1.114l1.127 1.073c-0.438,0.51 -0.977,0.9 -1.617,1.168 -0.64,0.268 -1.345,0.403 -2.114,0.403zm9.61 -6.644c0.698,0 1.313,0.13 1.845,0.389 0.532,0.26 0.949,0.638 1.248,1.134 0.3,0.497 0.45,1.09 0.45,1.779 0,1.064 -0.356,1.894 -1.067,2.489 -0.711,0.595 -1.716,0.893 -3.013,0.893 -1.289,0 -2.271,-0.298 -2.946,-0.893 -0.676,-0.595 -1.014,-1.46 -1.014,-2.597l0 -6.08 1.718 0 0 3.557c0.958,-0.447 1.884,-0.671 2.779,-0.671zm-0.47 5.261c0.707,0 1.259,-0.17 1.657,-0.51 0.399,-0.34 0.598,-0.805 0.598,-1.396 0,-0.617 -0.211,-1.1 -0.631,-1.449 -0.421,-0.349 -0.958,-0.524 -1.611,-0.524 -0.384,0 -0.778,0.068 -1.181,0.202 -0.402,0.134 -0.783,0.331 -1.141,0.59l0 0.967c0,0.68 0.202,1.203 0.604,1.57 0.403,0.367 0.971,0.55 1.705,0.55zm16.991 -8.227c1.271,0 2.264,0.32 2.98,0.96 0.716,0.639 1.074,1.527 1.074,2.664 0,1.091 -0.327,1.948 -0.98,2.57 -0.653,0.622 -1.557,0.933 -2.711,0.933 -0.448,0 -0.877,-0.05 -1.289,-0.148 -0.411,-0.098 -0.859,-0.264 -1.342,-0.497l0 2.993 -1.718 0 0 -5.623c0,-1.235 0.345,-2.186 1.034,-2.852 0.689,-0.667 1.673,-1 2.952,-1zm0.054 5.758c0.707,0 1.259,-0.184 1.658,-0.551 0.398,-0.366 0.597,-0.881 0.597,-1.543 0,-0.671 -0.201,-1.197 -0.604,-1.577 -0.403,-0.38 -0.957,-0.57 -1.664,-0.57 -0.725,0 -1.291,0.201 -1.698,0.604 -0.407,0.402 -0.611,0.97 -0.611,1.704l0 1.141c0.322,0.259 0.682,0.456 1.081,0.59 0.398,0.135 0.812,0.202 1.241,0.202zm10.187 3.852c-0.958,0 -1.821,-0.208 -2.59,-0.624 -0.77,-0.417 -1.374,-0.994 -1.812,-1.732 -0.439,-0.738 -0.658,-1.563 -0.658,-2.476 0,-0.913 0.219,-1.738 0.658,-2.476 0.438,-0.738 1.042,-1.316 1.812,-1.732 0.769,-0.416 1.633,-0.624 2.59,-0.624 0.957,0 1.821,0.208 2.59,0.624 0.77,0.416 1.374,0.991 1.812,1.725 0.439,0.734 0.658,1.561 0.658,2.483 0,0.922 -0.219,1.749 -0.658,2.483 -0.438,0.734 -1.042,1.308 -1.812,1.725 -0.769,0.416 -1.633,0.624 -2.59,0.624zm0 -1.53c0.626,0 1.19,-0.141 1.691,-0.423 0.501,-0.282 0.895,-0.676 1.181,-1.181 0.286,-0.506 0.43,-1.072 0.43,-1.698 0,-0.626 -0.144,-1.192 -0.43,-1.698 -0.286,-0.505 -0.68,-0.899 -1.181,-1.181 -0.501,-0.282 -1.065,-0.423 -1.691,-0.423 -0.626,0 -1.19,0.141 -1.691,0.423 -0.501,0.282 -0.895,0.676 -1.181,1.181 -0.287,0.506 -0.43,1.072 -0.43,1.698 0,0.626 0.143,1.192 0.43,1.698 0.286,0.505 0.68,0.899 1.181,1.181 0.501,0.282 1.065,0.423 1.691,0.423zm14.871 -2.564l-1.611 0 0 3.959 -1.704 0 0 -3.959 -1.611 0 -2.375 3.959 -2.014 0 2.953 -4.898 -2.751 -4.497 1.852 0 2.295 3.933 1.651 0 0 -3.933 1.704 0 0 3.933 1.624 0 2.309 -3.933 1.852 0 -2.738 4.51 2.939 4.885 -2.013 0 -2.362 -3.959zm15.582 2.483l0 3.476 -1.611 0 0 -2 -7.408 0 -0.014 2 -1.61 0 0.013 -3.476 1.141 0 0 -3.852c0,-0.895 0.172,-1.655 0.517,-2.281 0.344,-0.627 0.83,-1.103 1.456,-1.43 0.626,-0.326 1.356,-0.49 2.188,-0.49 0.841,0 1.574,0.161 2.201,0.483 0.626,0.323 1.112,0.799 1.456,1.43 0.344,0.631 0.517,1.393 0.517,2.288l0 3.852 1.154 0zm-2.899 0l0 -4.013c0,-0.823 -0.215,-1.447 -0.644,-1.872 -0.43,-0.425 -1.025,-0.638 -1.785,-0.638 -0.761,0 -1.354,0.213 -1.779,0.638 -0.425,0.425 -0.637,1.049 -0.637,1.872l0 4.013 4.845 0zm8.603 -8.053c0.841,0 1.575,0.166 2.201,0.497 0.626,0.331 1.112,0.821 1.456,1.469 0.345,0.649 0.517,1.434 0.517,2.356l0 5.207 -1.745 0 0 -2.415 -4.885 0 0 2.415 -1.718 0 0 -5.207c0,-0.922 0.172,-1.707 0.517,-2.356 0.344,-0.648 0.83,-1.138 1.456,-1.469 0.626,-0.331 1.36,-0.497 2.201,-0.497zm2.429 5.651l0 -1.49c0,-0.868 -0.214,-1.523 -0.644,-1.966 -0.429,-0.443 -1.029,-0.665 -1.798,-0.665 -0.77,0 -1.369,0.222 -1.799,0.665 -0.429,0.443 -0.644,1.098 -0.644,1.966l0 1.49 4.885 0zm11.435 2.979c-0.42,0.331 -0.962,0.586 -1.624,0.765 -0.662,0.179 -1.378,0.269 -2.147,0.269 -0.904,0 -1.671,-0.117 -2.302,-0.349 -0.631,-0.233 -1.107,-0.555 -1.429,-0.967 -0.322,-0.411 -0.483,-0.885 -0.484,-1.422 0.001,-0.519 0.144,-0.971 0.43,-1.356 0.286,-0.385 0.671,-0.666 1.154,-0.845 -0.367,-0.197 -0.655,-0.472 -0.865,-0.826 -0.211,-0.353 -0.316,-0.749 -0.316,-1.188 0,-0.501 0.15,-0.955 0.45,-1.362 0.3,-0.407 0.749,-0.734 1.349,-0.98 0.599,-0.246 1.337,-0.369 2.214,-0.369 0.591,0 1.168,0.063 1.732,0.188 0.563,0.125 1.055,0.295 1.476,0.51l-0.497 1.383c-0.787,-0.412 -1.668,-0.618 -2.644,-0.618 -0.769,0 -1.349,0.123 -1.738,0.369 -0.389,0.246 -0.584,0.575 -0.584,0.987 0,0.402 0.144,0.709 0.43,0.919 0.286,0.21 0.707,0.316 1.261,0.316l2.483 0 0 1.449 -2.576 0c-0.636,0 -1.128,0.11 -1.477,0.329 -0.349,0.219 -0.523,0.543 -0.523,0.973 0,0.429 0.21,0.769 0.631,1.02 0.42,0.25 1.055,0.376 1.905,0.376 0.591,0 1.166,-0.081 1.725,-0.242 0.559,-0.161 1.027,-0.385 1.403,-0.671l0.563 1.342zm8.174 -6.16c-0.886,-0.501 -1.807,-0.806 -2.765,-0.913l0 7.972 -1.745 0 0 -7.972c-0.966,0.107 -1.892,0.412 -2.778,0.913l-0.604 -1.342c0.626,-0.376 1.3,-0.658 2.02,-0.846 0.72,-0.188 1.461,-0.282 2.221,-0.282 0.761,0 1.503,0.094 2.228,0.282 0.725,0.188 1.4,0.47 2.027,0.846l-0.604 1.342zm6.254 7.194c-0.948,0 -1.805,-0.208 -2.57,-0.624 -0.765,-0.417 -1.364,-0.991 -1.798,-1.725 -0.434,-0.734 -0.651,-1.561 -0.651,-2.483 0,-0.922 0.219,-1.749 0.657,-2.483 0.439,-0.734 1.04,-1.309 1.805,-1.725 0.766,-0.416 1.622,-0.624 2.571,-0.624 0.769,0 1.472,0.134 2.107,0.403 0.635,0.268 1.172,0.658 1.61,1.168l-1.127 1.06c-0.68,-0.734 -1.517,-1.101 -2.51,-1.101 -0.644,0 -1.221,0.141 -1.731,0.423 -0.51,0.282 -0.908,0.673 -1.195,1.174 -0.286,0.501 -0.429,1.07 -0.429,1.705 0,0.635 0.143,1.203 0.429,1.704 0.287,0.501 0.685,0.893 1.195,1.175 0.51,0.282 1.087,0.423 1.731,0.423 0.993,0 1.83,-0.372 2.51,-1.114l1.127 1.073c-0.438,0.51 -0.977,0.9 -1.617,1.168 -0.64,0.268 -1.344,0.403 -2.114,0.403zm12.334 -9.53l0 9.395 -1.717 0 0 -2.617 -2.322 0 -0.188 0 -1.745 2.617 -1.839 0 2.013 -2.899c-0.653,-0.241 -1.156,-0.624 -1.509,-1.147 -0.354,-0.524 -0.531,-1.157 -0.531,-1.899 0,-0.716 0.161,-1.333 0.484,-1.852 0.322,-0.519 0.778,-0.915 1.369,-1.188 0.59,-0.273 1.284,-0.41 2.08,-0.41l3.905 0zm-3.851 1.477c-0.716,0 -1.264,0.165 -1.645,0.496 -0.38,0.331 -0.57,0.815 -0.57,1.45 0,0.617 0.184,1.094 0.55,1.429 0.367,0.336 0.9,0.504 1.597,0.504l2.202 0 0 -3.879 -2.134 0z"/>
 </g>
</svg>
