<?xml version="1.0" encoding="UTF-8"?>
<!DOCTYPE svg PUBLIC "-//W3C//DTD SVG 1.1//EN" "http://www.w3.org/Graphics/SVG/1.1/DTD/svg11.dtd">
<!-- Creator: CorelDRAW -->
<svg xmlns="http://www.w3.org/2000/svg" xml:space="preserve" width="1256px" height="118px" version="1.1" style="shape-rendering:geometricPrecision; text-rendering:geometricPrecision; image-rendering:optimizeQuality; fill-rule:evenodd; clip-rule:evenodd"
viewBox="0 0 313.078 29.419"
 xmlns:xlink="http://www.w3.org/1999/xlink"
 xmlns:xodm="http://www.corel.com/coreldraw/odm/2003">
 <defs>
  <style type="text/css">
   <![CDATA[
    .fil0 {fill:#4162EB}
    .fil1 {fill:black;fill-rule:nonzero}
   ]]>
  </style>
 </defs>
 <g id="Слой_x0020_1">
  <metadata id="CorelCorpID_0Corel-Layer"/>
  <polygon class="fil0" points="287.304,3.646 296.624,8.653 302.013,0 302.681,10.396 313.078,11.064 304.425,16.453 309.432,25.774 300.111,20.767 294.722,29.419 294.054,19.023 283.658,18.355 292.311,12.966 "/>
  <path class="fil1" d="M10.714 15.411c1.029,0.327 1.834,0.854 2.415,1.582 0.58,0.727 0.87,1.581 0.87,2.562 0,1.029 -0.335,1.924 -1.005,2.684 -0.67,0.76 -1.565,1.344 -2.685,1.753 -1.119,0.409 -2.341,0.613 -3.665,0.613 -1.144,0 -2.292,-0.159 -3.445,-0.478 -1.152,-0.319 -2.218,-0.797 -3.199,-1.434l1.03 -2.329c0.752,0.506 1.585,0.894 2.5,1.164 0.916,0.27 1.823,0.405 2.722,0.405 1.291,0 2.366,-0.254 3.224,-0.76 0.858,-0.507 1.287,-1.202 1.287,-2.084 0,-0.752 -0.311,-1.324 -0.932,-1.716 -0.621,-0.393 -1.479,-0.589 -2.574,-0.589l-3.996 0 0 -2.5 3.751 0c0.948,0 1.691,-0.197 2.231,-0.589 0.539,-0.392 0.809,-0.923 0.809,-1.593 0,-0.801 -0.364,-1.422 -1.091,-1.864 -0.728,-0.441 -1.655,-0.662 -2.783,-0.662 -0.768,0 -1.561,0.111 -2.378,0.331 -0.817,0.221 -1.585,0.544 -2.304,0.969l-1.006 -2.574c0.883,-0.474 1.819,-0.83 2.808,-1.067 0.988,-0.237 1.973,-0.355 2.954,-0.355 1.275,0 2.447,0.196 3.518,0.588 1.07,0.392 1.924,0.952 2.562,1.679 0.637,0.728 0.956,1.582 0.956,2.562 0,0.85 -0.229,1.594 -0.687,2.231 -0.457,0.638 -1.086,1.128 -1.887,1.471zm24.565 6.252l0 6.35 -2.942 0 0 -3.653 -13.533 0 -0.025 3.653 -2.941 0 0.024 -6.35 2.084 0 0 -7.036c0,-1.635 0.315,-3.024 0.944,-4.168 0.629,-1.144 1.516,-2.014 2.66,-2.611 1.144,-0.597 2.476,-0.895 3.996,-0.895 1.536,0 2.877,0.294 4.021,0.883 1.144,0.588 2.031,1.458 2.66,2.611 0.629,1.152 0.944,2.545 0.944,4.18l0 7.036 2.108 0zm-5.295 0l0 -7.33c0,-1.504 -0.393,-2.644 -1.177,-3.421 -0.785,-0.776 -1.872,-1.164 -3.261,-1.164 -1.389,0 -2.472,0.388 -3.248,1.164 -0.777,0.777 -1.165,1.917 -1.165,3.421l0 7.33 8.851 0zm21.623 1.054c-0.768,0.605 -1.757,1.071 -2.967,1.398 -1.209,0.326 -2.517,0.49 -3.922,0.49 -1.651,0 -3.052,-0.213 -4.205,-0.638 -1.152,-0.424 -2.022,-1.013 -2.611,-1.765 -0.588,-0.752 -0.882,-1.618 -0.882,-2.598 0,-0.948 0.261,-1.774 0.784,-2.477 0.523,-0.702 1.226,-1.217 2.109,-1.544 -0.67,-0.36 -1.198,-0.862 -1.582,-1.508 -0.384,-0.645 -0.576,-1.369 -0.576,-2.17 0,-0.915 0.274,-1.744 0.821,-2.488 0.548,-0.744 1.369,-1.34 2.464,-1.79 1.095,-0.449 2.444,-0.674 4.046,-0.674 1.078,0 2.132,0.115 3.162,0.343 1.03,0.229 1.929,0.54 2.697,0.932l-0.907 2.525c-1.438,-0.752 -3.048,-1.128 -4.83,-1.128 -1.406,0 -2.464,0.225 -3.175,0.675 -0.711,0.449 -1.066,1.05 -1.066,1.802 0,0.735 0.261,1.295 0.784,1.679 0.523,0.384 1.292,0.576 2.305,0.576l4.535 0 0 2.648 -4.707 0c-1.16,0 -2.059,0.2 -2.697,0.6 -0.637,0.401 -0.956,0.993 -0.956,1.778 0,0.784 0.384,1.405 1.153,1.863 0.768,0.458 1.928,0.687 3.481,0.687 1.079,0 2.129,-0.148 3.15,-0.442 1.022,-0.294 1.876,-0.703 2.562,-1.225l1.03 2.451zm10.297 1.888c-1.733,0 -3.298,-0.38 -4.695,-1.14 -1.398,-0.76 -2.493,-1.81 -3.285,-3.15 -0.793,-1.341 -1.189,-2.852 -1.189,-4.536 0,-1.683 0.4,-3.195 1.201,-4.535 0.801,-1.341 1.9,-2.391 3.297,-3.151 1.398,-0.76 2.963,-1.14 4.695,-1.14 1.406,0 2.689,0.245 3.849,0.736 1.161,0.49 2.141,1.201 2.942,2.133l-2.059 1.936c-1.242,-1.34 -2.77,-2.01 -4.585,-2.01 -1.176,0 -2.231,0.257 -3.162,0.772 -0.932,0.515 -1.659,1.23 -2.182,2.145 -0.523,0.916 -0.785,1.954 -0.785,3.114 0,1.16 0.262,2.198 0.785,3.114 0.523,0.915 1.25,1.63 2.182,2.145 0.931,0.515 1.986,0.772 3.162,0.772 1.815,0 3.343,-0.678 4.585,-2.035l2.059 1.961c-0.801,0.932 -1.785,1.643 -2.954,2.133 -1.168,0.491 -2.456,0.736 -3.861,0.736zm17.554 -12.136c1.274,0 2.398,0.237 3.37,0.711 0.973,0.474 1.733,1.165 2.281,2.072 0.547,0.907 0.821,1.99 0.821,3.248 0,1.945 -0.65,3.461 -1.949,4.548 -1.3,1.087 -3.134,1.63 -5.504,1.63 -2.354,0 -4.147,-0.543 -5.381,-1.63 -1.234,-1.087 -1.851,-2.668 -1.851,-4.744l0 -11.106 3.138 0 0 6.497c1.748,-0.817 3.44,-1.226 5.075,-1.226zm-0.859 9.611c1.292,0 2.301,-0.311 3.028,-0.932 0.728,-0.621 1.091,-1.471 1.091,-2.55 0,-1.127 -0.384,-2.01 -1.152,-2.647 -0.768,-0.638 -1.749,-0.956 -2.942,-0.956 -0.703,0 -1.422,0.122 -2.157,0.367 -0.736,0.245 -1.431,0.605 -2.084,1.079l0 1.765c0,1.242 0.367,2.198 1.103,2.869 0.735,0.67 1.773,1.005 3.113,1.005zm31.038 -15.029c2.321,0 4.135,0.584 5.443,1.753 1.307,1.169 1.961,2.791 1.961,4.867 0,1.994 -0.596,3.559 -1.789,4.694 -1.194,1.136 -2.844,1.704 -4.953,1.704 -0.817,0 -1.602,-0.09 -2.353,-0.269 -0.752,-0.18 -1.569,-0.482 -2.452,-0.907l0 5.467 -3.138 0 0 -10.273c0,-2.255 0.629,-3.992 1.888,-5.209 1.258,-1.218 3.056,-1.827 5.393,-1.827zm0.098 10.518c1.292,0 2.301,-0.335 3.028,-1.005 0.727,-0.671 1.091,-1.61 1.091,-2.82 0,-1.226 -0.368,-2.186 -1.103,-2.881 -0.736,-0.694 -1.749,-1.041 -3.04,-1.041 -1.324,0 -2.358,0.367 -3.102,1.103 -0.743,0.735 -1.115,1.773 -1.115,3.113l0 2.084c0.588,0.474 1.246,0.834 1.974,1.079 0.727,0.245 1.483,0.368 2.267,0.368zm18.608 7.036c-1.749,0 -3.326,-0.38 -4.731,-1.14 -1.406,-0.76 -2.509,-1.814 -3.31,-3.163 -0.801,-1.348 -1.201,-2.856 -1.201,-4.523 0,-1.667 0.4,-3.175 1.201,-4.523 0.801,-1.349 1.904,-2.403 3.31,-3.163 1.405,-0.76 2.982,-1.14 4.731,-1.14 1.749,0 3.326,0.38 4.732,1.14 1.405,0.76 2.509,1.81 3.31,3.151 0.801,1.34 1.201,2.852 1.201,4.535 0,1.684 -0.4,3.195 -1.201,4.536 -0.801,1.34 -1.905,2.39 -3.31,3.15 -1.406,0.76 -2.983,1.14 -4.732,1.14zm0 -2.795c1.144,0 2.174,-0.257 3.089,-0.772 0.916,-0.515 1.635,-1.234 2.158,-2.158 0.523,-0.923 0.784,-1.957 0.784,-3.101 0,-1.144 -0.261,-2.178 -0.784,-3.101 -0.523,-0.924 -1.242,-1.643 -2.158,-2.158 -0.915,-0.515 -1.945,-0.772 -3.089,-0.772 -1.144,0 -2.174,0.257 -3.089,0.772 -0.915,0.515 -1.634,1.234 -2.157,2.158 -0.523,0.923 -0.785,1.957 -0.785,3.101 0,1.144 0.262,2.178 0.785,3.101 0.523,0.924 1.242,1.643 2.157,2.158 0.915,0.515 1.945,0.772 3.089,0.772zm27.164 -4.683l-2.942 0 0 7.233 -3.113 0 0 -7.233 -2.942 0 -4.34 7.233 -3.677 0 5.394 -8.949 -5.026 -8.213 3.383 0 4.192 7.184 3.016 0 0 -7.184 3.113 0 0 7.184 2.967 0 4.217 -7.184 3.383 0 -5.001 8.238 5.369 8.924 -3.678 0 -4.315 -7.233zm28.464 4.536l0 6.35 -2.942 0 0 -3.653 -13.533 0 -0.025 3.653 -2.942 0 0.025 -6.35 2.084 0 0 -7.036c0,-1.635 0.314,-3.024 0.944,-4.168 0.629,-1.144 1.516,-2.014 2.66,-2.611 1.144,-0.597 2.476,-0.895 3.996,-0.895 1.536,0 2.876,0.294 4.021,0.883 1.144,0.588 2.03,1.458 2.66,2.611 0.629,1.152 0.943,2.545 0.943,4.18l0 7.036 2.109 0zm-5.296 0l0 -7.33c0,-1.504 -0.392,-2.644 -1.176,-3.421 -0.785,-0.776 -1.872,-1.164 -3.261,-1.164 -1.389,0 -2.472,0.388 -3.249,1.164 -0.776,0.777 -1.164,1.917 -1.164,3.421l0 7.33 8.85 0zm15.715 -14.71c1.537,0 2.877,0.302 4.021,0.907 1.144,0.605 2.031,1.5 2.66,2.685 0.629,1.185 0.944,2.619 0.944,4.302l0 9.513 -3.187 0 0 -4.413 -8.924 0 0 4.413 -3.138 0 0 -9.513c0,-1.683 0.314,-3.117 0.944,-4.302 0.629,-1.185 1.516,-2.08 2.66,-2.685 1.144,-0.605 2.484,-0.907 4.02,-0.907zm4.438 10.322l0 -2.722c0,-1.585 -0.393,-2.782 -1.177,-3.591 -0.785,-0.809 -1.88,-1.214 -3.285,-1.214 -1.406,0 -2.501,0.405 -3.285,1.214 -0.785,0.809 -1.177,2.006 -1.177,3.591l0 2.722 8.924 0zm20.888 5.442c-0.769,0.605 -1.757,1.071 -2.967,1.398 -1.209,0.326 -2.517,0.49 -3.922,0.49 -1.651,0 -3.053,-0.213 -4.205,-0.638 -1.152,-0.424 -2.023,-1.013 -2.611,-1.765 -0.588,-0.752 -0.883,-1.618 -0.883,-2.598 0,-0.948 0.262,-1.774 0.785,-2.477 0.523,-0.702 1.226,-1.217 2.108,-1.544 -0.67,-0.36 -1.197,-0.862 -1.581,-1.508 -0.384,-0.645 -0.576,-1.369 -0.576,-2.17 0,-0.915 0.274,-1.744 0.821,-2.488 0.548,-0.744 1.369,-1.34 2.464,-1.79 1.095,-0.449 2.444,-0.674 4.045,-0.674 1.079,0 2.133,0.115 3.163,0.343 1.03,0.229 1.929,0.54 2.697,0.932l-0.907 2.525c-1.439,-0.752 -3.049,-1.128 -4.83,-1.128 -1.406,0 -2.464,0.225 -3.175,0.675 -0.711,0.449 -1.066,1.05 -1.066,1.802 0,0.735 0.261,1.295 0.784,1.679 0.523,0.384 1.291,0.576 2.305,0.576l4.535 0 0 2.648 -4.707 0c-1.16,0 -2.059,0.2 -2.697,0.6 -0.637,0.401 -0.956,0.993 -0.956,1.778 0,0.784 0.384,1.405 1.152,1.863 0.768,0.458 1.929,0.687 3.482,0.687 1.078,0 2.128,-0.148 3.15,-0.442 1.021,-0.294 1.876,-0.703 2.562,-1.225l1.03 2.451zm14.93 -11.253c-1.618,-0.915 -3.301,-1.471 -5.05,-1.667l0 14.563 -3.187 0 0 -14.563c-1.766,0.196 -3.457,0.752 -5.075,1.667l-1.103 -2.451c1.144,-0.687 2.374,-1.202 3.689,-1.545 1.316,-0.343 2.668,-0.515 4.058,-0.515 1.389,0 2.746,0.172 4.069,0.515 1.324,0.343 2.558,0.858 3.702,1.545l-1.103 2.451zm11.425 13.141c-1.733,0 -3.298,-0.38 -4.695,-1.14 -1.398,-0.76 -2.493,-1.81 -3.285,-3.15 -0.793,-1.341 -1.189,-2.852 -1.189,-4.536 0,-1.683 0.4,-3.195 1.201,-4.535 0.801,-1.341 1.9,-2.391 3.297,-3.151 1.398,-0.76 2.963,-1.14 4.695,-1.14 1.406,0 2.689,0.245 3.849,0.736 1.161,0.49 2.141,1.201 2.942,2.133l-2.059 1.936c-1.242,-1.34 -2.77,-2.01 -4.585,-2.01 -1.176,0 -2.231,0.257 -3.162,0.772 -0.932,0.515 -1.659,1.23 -2.182,2.145 -0.523,0.916 -0.785,1.954 -0.785,3.114 0,1.16 0.262,2.198 0.785,3.114 0.523,0.915 1.25,1.63 2.182,2.145 0.931,0.515 1.986,0.772 3.162,0.772 1.815,0 3.343,-0.678 4.585,-2.035l2.059 1.961c-0.801,0.932 -1.785,1.643 -2.954,2.133 -1.168,0.491 -2.456,0.736 -3.861,0.736zm22.53 -17.407l0 17.162 -3.138 0 0 -4.781 -4.241 0 -0.343 0 -3.187 4.781 -3.359 0 3.677 -5.296c-1.193,-0.441 -2.112,-1.14 -2.758,-2.096 -0.645,-0.956 -0.968,-2.112 -0.968,-3.469 0,-1.307 0.294,-2.435 0.882,-3.383 0.589,-0.948 1.422,-1.671 2.501,-2.17 1.079,-0.498 2.345,-0.748 3.8,-0.748l7.134 0zm-7.036 2.697c-1.307,0 -2.308,0.302 -3.003,0.907 -0.695,0.605 -1.042,1.488 -1.042,2.648 0,1.128 0.335,1.998 1.005,2.611 0.67,0.613 1.643,0.919 2.918,0.919l4.02 0 0 -7.085 -3.898 0z"/>
 </g>
</svg>
