<?xml version="1.0" encoding="UTF-8"?>
<!DOCTYPE svg PUBLIC "-//W3C//DTD SVG 1.1//EN" "http://www.w3.org/Graphics/SVG/1.1/DTD/svg11.dtd">
<!-- Creator: CorelDRAW -->
<svg xmlns="http://www.w3.org/2000/svg" xml:space="preserve" width="1266px" height="83px" version="1.1" style="shape-rendering:geometricPrecision; text-rendering:geometricPrecision; image-rendering:optimizeQuality; fill-rule:evenodd; clip-rule:evenodd"
viewBox="0 0 326.776 21.412"
 xmlns:xlink="http://www.w3.org/1999/xlink"
 xmlns:xodm="http://www.corel.com/coreldraw/odm/2003">
 <defs>
  <style type="text/css">
   <![CDATA[
    .fil0 {fill:black;fill-rule:nonzero}
   ]]>
  </style>
 </defs>
 <g id="Слой_x0020_1">
  <metadata id="CorelCorpID_0Corel-Layer"/>
  <g id="_105553260325696">
   <path class="fil0" d="M17.694 14.869l0 6.543 -2.973 0 0 -3.817 -14.721 0 0 -17.347 3.172 0 0 14.621 8.748 0 0 -14.621 3.197 0 0 14.621 2.577 0zm17.843 -14.621l0 17.347 -3.097 0 0 -2.205c-1.173,1.635 -2.991,2.453 -5.452,2.453 -2.049,0 -3.66,-0.64 -4.833,-1.921 -1.173,-1.28 -1.759,-3.093 -1.759,-5.439l0 -10.235 3.221 0 0 10.111c0,1.536 0.368,2.697 1.103,3.482 0.735,0.784 1.747,1.177 3.036,1.177 1.388,0 2.495,-0.417 3.321,-1.252 0.826,-0.834 1.239,-2.077 1.239,-3.729l0 -9.789 3.221 0zm13.977 -0.223c2.099,0 3.949,0.384 5.552,1.152 1.602,0.768 2.837,1.826 3.705,3.172 0.867,1.347 1.301,2.871 1.301,4.573 0,1.701 -0.434,3.225 -1.301,4.572 -0.868,1.346 -2.103,2.404 -3.705,3.172 -1.603,0.768 -3.453,1.152 -5.552,1.152 -2.114,0 -3.969,-0.384 -5.563,-1.152 -1.594,-0.768 -2.825,-1.826 -3.693,-3.172 -0.867,-1.347 -1.301,-2.871 -1.301,-4.572 0,-1.702 0.434,-3.226 1.301,-4.573 0.868,-1.346 2.099,-2.404 3.693,-3.172 1.594,-0.768 3.449,-1.152 5.563,-1.152zm1.487 14.943c1.851,-0.247 3.296,-0.917 4.337,-2.007 1.041,-1.09 1.561,-2.437 1.561,-4.039 0,-1.62 -0.52,-2.97 -1.561,-4.052 -1.041,-1.082 -2.486,-1.739 -4.337,-1.971l0 12.069zm-8.896 -6.046c0,1.602 0.52,2.949 1.561,4.039 1.041,1.09 2.486,1.76 4.337,2.007l0 -12.069c-1.851,0.248 -3.296,0.913 -4.337,1.995 -1.041,1.083 -1.561,2.425 -1.561,4.028zm28.449 -8.823c2.346,0 4.18,0.591 5.502,1.772 1.322,1.181 1.983,2.821 1.983,4.919 0,2.016 -0.604,3.598 -1.81,4.746 -1.206,1.148 -2.874,1.722 -5.006,1.722 -0.826,0 -1.619,-0.09 -2.379,-0.272 -0.76,-0.182 -1.586,-0.488 -2.478,-0.917l0 5.526 -3.172 0 0 -10.383c0,-2.28 0.636,-4.036 1.908,-5.267 1.273,-1.23 3.09,-1.846 5.452,-1.846zm0.1 10.632c1.305,0 2.325,-0.339 3.06,-1.016 0.735,-0.678 1.103,-1.628 1.103,-2.85 0,-1.239 -0.372,-2.21 -1.115,-2.912 -0.744,-0.702 -1.768,-1.054 -3.073,-1.054 -1.339,0 -2.383,0.372 -3.135,1.116 -0.752,0.743 -1.128,1.792 -1.128,3.147l0 2.106c0.595,0.48 1.26,0.843 1.995,1.091 0.735,0.248 1.499,0.372 2.293,0.372zm18.809 7.112c-1.768,0 -3.362,-0.384 -4.783,-1.152 -1.421,-0.769 -2.536,-1.834 -3.345,-3.197 -0.81,-1.363 -1.215,-2.887 -1.215,-4.572 0,-1.686 0.405,-3.21 1.215,-4.573 0.809,-1.363 1.924,-2.428 3.345,-3.197 1.421,-0.768 3.015,-1.152 4.783,-1.152 1.768,0 3.362,0.384 4.783,1.152 1.421,0.769 2.536,1.83 3.346,3.185 0.809,1.355 1.214,2.883 1.214,4.585 0,1.701 -0.405,3.229 -1.214,4.584 -0.81,1.355 -1.925,2.416 -3.346,3.185 -1.421,0.768 -3.015,1.152 -4.783,1.152zm0 -2.825c1.157,0 2.197,-0.26 3.123,-0.781 0.925,-0.52 1.652,-1.247 2.18,-2.181 0.529,-0.933 0.793,-1.978 0.793,-3.134 0,-1.157 -0.264,-2.202 -0.793,-3.135 -0.528,-0.934 -1.255,-1.661 -2.18,-2.181 -0.926,-0.521 -1.966,-0.781 -3.123,-0.781 -1.156,0 -2.197,0.26 -3.122,0.781 -0.926,0.52 -1.653,1.247 -2.181,2.181 -0.529,0.933 -0.793,1.978 -0.793,3.135 0,1.156 0.264,2.201 0.793,3.134 0.528,0.934 1.255,1.661 2.181,2.181 0.925,0.521 1.966,0.781 3.122,0.781zm24.336 -6.443c1.107,0.297 1.949,0.805 2.528,1.524 0.578,0.718 0.867,1.615 0.867,2.689 0,1.52 -0.562,2.701 -1.685,3.543 -1.124,0.843 -2.751,1.264 -4.882,1.264l-8.228 0 0 -17.347 7.757 0c1.95,0 3.47,0.388 4.56,1.165 1.09,0.776 1.636,1.875 1.636,3.296 0,0.908 -0.219,1.693 -0.657,2.354 -0.438,0.661 -1.07,1.165 -1.896,1.512zm-8.228 -0.917l4.312 0c1.041,0 1.834,-0.207 2.379,-0.62 0.546,-0.413 0.818,-1.024 0.818,-1.834 0,-0.809 -0.272,-1.425 -0.818,-1.846 -0.545,-0.421 -1.338,-0.632 -2.379,-0.632l-4.312 0 0 4.932zm4.957 7.459c2.28,0 3.42,-0.859 3.42,-2.577 0,-1.685 -1.14,-2.528 -3.42,-2.528l-4.957 0 0 5.105 4.957 0zm18.363 2.726c-1.768,0 -3.362,-0.384 -4.783,-1.152 -1.421,-0.769 -2.536,-1.834 -3.345,-3.197 -0.81,-1.363 -1.215,-2.887 -1.215,-4.572 0,-1.686 0.405,-3.21 1.215,-4.573 0.809,-1.363 1.924,-2.428 3.345,-3.197 1.421,-0.768 3.015,-1.152 4.783,-1.152 1.768,0 3.362,0.384 4.783,1.152 1.421,0.769 2.536,1.83 3.346,3.185 0.809,1.355 1.214,2.883 1.214,4.585 0,1.701 -0.405,3.229 -1.214,4.584 -0.81,1.355 -1.925,2.416 -3.346,3.185 -1.421,0.768 -3.015,1.152 -4.783,1.152zm0 -2.825c1.157,0 2.198,-0.26 3.123,-0.781 0.925,-0.52 1.652,-1.247 2.181,-2.181 0.528,-0.933 0.793,-1.978 0.793,-3.134 0,-1.157 -0.265,-2.202 -0.793,-3.135 -0.529,-0.934 -1.256,-1.661 -2.181,-2.181 -0.925,-0.521 -1.966,-0.781 -3.123,-0.781 -1.156,0 -2.197,0.26 -3.122,0.781 -0.926,0.52 -1.652,1.247 -2.181,2.181 -0.529,0.933 -0.793,1.978 -0.793,3.135 0,1.156 0.264,2.201 0.793,3.134 0.529,0.934 1.255,1.661 2.181,2.181 0.925,0.521 1.966,0.781 3.122,0.781zm26.343 0.917c-0.776,0.611 -1.776,1.082 -2.998,1.412 -1.223,0.331 -2.544,0.496 -3.965,0.496 -1.669,0 -3.086,-0.215 -4.25,-0.644 -1.165,-0.43 -2.045,-1.025 -2.64,-1.785 -0.594,-0.76 -0.892,-1.635 -0.892,-2.626 0,-0.959 0.265,-1.793 0.793,-2.503 0.529,-0.711 1.239,-1.231 2.131,-1.562 -0.677,-0.363 -1.21,-0.871 -1.598,-1.524 -0.388,-0.652 -0.582,-1.384 -0.582,-2.193 0,-0.925 0.276,-1.764 0.83,-2.515 0.553,-0.752 1.384,-1.355 2.49,-1.809 1.107,-0.455 2.47,-0.682 4.089,-0.682 1.091,0 2.157,0.116 3.197,0.347 1.041,0.231 1.95,0.545 2.726,0.942l-0.917 2.552c-1.453,-0.76 -3.081,-1.14 -4.882,-1.14 -1.42,0 -2.49,0.227 -3.209,0.682 -0.719,0.454 -1.078,1.061 -1.078,1.821 0,0.744 0.264,1.31 0.793,1.698 0.529,0.388 1.305,0.582 2.33,0.582l4.584 0 0 2.677 -4.758 0c-1.173,0 -2.082,0.202 -2.726,0.607 -0.644,0.405 -0.966,1.003 -0.966,1.796 0,0.794 0.388,1.421 1.164,1.884 0.777,0.462 1.95,0.694 3.519,0.694 1.091,0 2.152,-0.149 3.185,-0.446 1.032,-0.298 1.896,-0.711 2.59,-1.239l1.04 2.478zm24.535 -15.687l0 17.347 -3.098 0 0 -2.205c-1.173,1.635 -2.99,2.453 -5.452,2.453 -2.049,0 -3.66,-0.64 -4.833,-1.921 -1.173,-1.28 -1.759,-3.093 -1.759,-5.439l0 -10.235 3.222 0 0 10.111c0,1.536 0.367,2.697 1.102,3.482 0.736,0.784 1.747,1.177 3.036,1.177 1.388,0 2.495,-0.417 3.321,-1.252 0.826,-0.834 1.239,-2.077 1.239,-3.729l0 -9.789 3.222 0zm12.738 17.595c-1.752,0 -3.334,-0.384 -4.746,-1.152 -1.413,-0.769 -2.52,-1.83 -3.321,-3.185 -0.801,-1.355 -1.202,-2.883 -1.202,-4.584 0,-1.702 0.405,-3.23 1.214,-4.585 0.81,-1.355 1.921,-2.416 3.334,-3.185 1.412,-0.768 2.994,-1.152 4.745,-1.152 1.421,0 2.718,0.248 3.891,0.743 1.173,0.496 2.165,1.215 2.974,2.156l-2.082 1.958c-1.255,-1.354 -2.8,-2.032 -4.634,-2.032 -1.189,0 -2.255,0.26 -3.197,0.781 -0.941,0.52 -1.677,1.243 -2.205,2.168 -0.529,0.925 -0.793,1.974 -0.793,3.148 0,1.173 0.264,2.222 0.793,3.147 0.528,0.925 1.264,1.648 2.205,2.168 0.942,0.521 2.008,0.781 3.197,0.781 1.834,0 3.379,-0.686 4.634,-2.057l2.082 1.983c-0.809,0.941 -1.805,1.66 -2.986,2.156 -1.181,0.495 -2.482,0.743 -3.903,0.743zm16.281 -7.558l-3.221 0 0 7.31 -3.172 0 0 -17.347 3.172 0 0 7.261 3.321 0 4.981 -7.261 3.42 0 -5.923 8.401 6.146 8.946 -3.643 0 -5.081 -7.31z"/>
   <path class="fil0" d="M234.71 0.248l0 12.044c0,2.561 -0.698,4.527 -2.094,5.898 -1.396,1.371 -3.325,2.057 -5.786,2.057 -1.454,0 -2.776,-0.211 -3.965,-0.632 -1.19,-0.421 -2.198,-1.02 -3.024,-1.797l1.314 -2.478c1.536,1.388 3.411,2.082 5.625,2.082 3.139,0 4.709,-1.661 4.709,-4.981l0 -1.314c-1.173,1.487 -2.875,2.231 -5.105,2.231 -2.198,0 -3.899,-0.628 -5.105,-1.884 -1.206,-1.256 -1.81,-3.056 -1.81,-5.402l0 -5.824 3.222 0 0 5.675c0,1.52 0.368,2.672 1.103,3.457 0.735,0.785 1.764,1.177 3.085,1.177 1.405,0 2.524,-0.417 3.358,-1.251 0.835,-0.835 1.252,-2.07 1.252,-3.705l0 -5.353 3.221 0zm12.59 17.595c-1.752,0 -3.334,-0.384 -4.746,-1.152 -1.413,-0.769 -2.52,-1.83 -3.321,-3.185 -0.801,-1.355 -1.202,-2.883 -1.202,-4.584 0,-1.702 0.405,-3.23 1.215,-4.585 0.809,-1.355 1.92,-2.416 3.333,-3.185 1.412,-0.768 2.994,-1.152 4.745,-1.152 1.421,0 2.718,0.248 3.891,0.743 1.173,0.496 2.165,1.215 2.974,2.156l-2.082 1.958c-1.255,-1.354 -2.8,-2.032 -4.634,-2.032 -1.189,0 -2.255,0.26 -3.197,0.781 -0.941,0.52 -1.677,1.243 -2.205,2.168 -0.529,0.925 -0.793,1.974 -0.793,3.148 0,1.173 0.264,2.222 0.793,3.147 0.528,0.925 1.264,1.648 2.205,2.168 0.942,0.521 2.008,0.781 3.197,0.781 1.834,0 3.379,-0.686 4.634,-2.057l2.082 1.983c-0.809,0.941 -1.805,1.66 -2.986,2.156 -1.181,0.495 -2.482,0.743 -3.903,0.743zm17.496 0c-1.751,0 -3.333,-0.384 -4.746,-1.152 -1.413,-0.769 -2.519,-1.83 -3.321,-3.185 -0.801,-1.355 -1.202,-2.883 -1.202,-4.584 0,-1.702 0.405,-3.23 1.215,-4.585 0.809,-1.355 1.92,-2.416 3.333,-3.185 1.412,-0.768 2.994,-1.152 4.746,-1.152 1.42,0 2.717,0.248 3.89,0.743 1.173,0.496 2.165,1.215 2.974,2.156l-2.082 1.958c-1.255,-1.354 -2.8,-2.032 -4.634,-2.032 -1.189,0 -2.255,0.26 -3.197,0.781 -0.941,0.52 -1.677,1.243 -2.205,2.168 -0.529,0.925 -0.793,1.974 -0.793,3.148 0,1.173 0.264,2.222 0.793,3.147 0.528,0.925 1.264,1.648 2.205,2.168 0.942,0.521 2.008,0.781 3.197,0.781 1.834,0 3.379,-0.686 4.634,-2.057l2.082 1.983c-0.809,0.941 -1.805,1.66 -2.986,2.156 -1.181,0.495 -2.482,0.743 -3.903,0.743zm22.304 -13.283c-1.636,-0.925 -3.338,-1.487 -5.106,-1.685l0 14.72 -3.221 0 0 -14.72c-1.784,0.198 -3.494,0.76 -5.13,1.685l-1.115 -2.478c1.156,-0.694 2.399,-1.215 3.729,-1.562 1.33,-0.347 2.698,-0.52 4.102,-0.52 1.404,0 2.775,0.173 4.114,0.52 1.338,0.347 2.585,0.868 3.742,1.562l-1.115 2.478zm15.24 4.015c1.107,0.297 1.95,0.805 2.528,1.524 0.579,0.718 0.868,1.615 0.868,2.689 0,1.52 -0.562,2.701 -1.686,3.543 -1.123,0.843 -2.75,1.264 -4.882,1.264l-8.227 0 0 -17.347 7.757 0c1.949,0 3.469,0.388 4.559,1.165 1.091,0.776 1.636,1.875 1.636,3.296 0,0.908 -0.219,1.693 -0.657,2.354 -0.437,0.661 -1.069,1.165 -1.896,1.512zm-8.227 -0.917l4.312 0c1.041,0 1.834,-0.207 2.379,-0.62 0.545,-0.413 0.818,-1.024 0.818,-1.834 0,-0.809 -0.273,-1.425 -0.818,-1.846 -0.545,-0.421 -1.338,-0.632 -2.379,-0.632l-4.312 0 0 4.932zm4.956 7.459c2.28,0 3.42,-0.859 3.42,-2.577 0,-1.685 -1.14,-2.528 -3.42,-2.528l-4.956 0 0 5.105 4.956 0zm18.364 2.726c-1.768,0 -3.362,-0.384 -4.783,-1.152 -1.421,-0.769 -2.536,-1.834 -3.346,-3.197 -0.809,-1.363 -1.214,-2.887 -1.214,-4.572 0,-1.686 0.405,-3.21 1.214,-4.573 0.81,-1.363 1.925,-2.428 3.346,-3.197 1.421,-0.768 3.015,-1.152 4.783,-1.152 1.768,0 3.362,0.384 4.783,1.152 1.421,0.769 2.536,1.83 3.345,3.185 0.81,1.355 1.215,2.883 1.215,4.585 0,1.701 -0.405,3.229 -1.215,4.584 -0.809,1.355 -1.924,2.416 -3.345,3.185 -1.421,0.768 -3.015,1.152 -4.783,1.152zm0 -2.825c1.156,0 2.197,-0.26 3.122,-0.781 0.926,-0.52 1.652,-1.247 2.181,-2.181 0.529,-0.933 0.793,-1.978 0.793,-3.134 0,-1.157 -0.264,-2.202 -0.793,-3.135 -0.529,-0.934 -1.255,-1.661 -2.181,-2.181 -0.925,-0.521 -1.966,-0.781 -3.122,-0.781 -1.157,0 -2.198,0.26 -3.123,0.781 -0.925,0.52 -1.652,1.247 -2.181,2.181 -0.528,0.933 -0.793,1.978 -0.793,3.135 0,1.156 0.265,2.201 0.793,3.134 0.529,0.934 1.256,1.661 2.181,2.181 0.925,0.521 1.966,0.781 3.123,0.781z"/>
  </g>
 </g>
</svg>
