<?xml version="1.0" encoding="UTF-8"?>
<!DOCTYPE svg PUBLIC "-//W3C//DTD SVG 1.1//EN" "http://www.w3.org/Graphics/SVG/1.1/DTD/svg11.dtd">
<!-- Creator: CorelDRAW -->
<svg xmlns="http://www.w3.org/2000/svg" xml:space="preserve" width="130px" height="32px" version="1.1" style="shape-rendering:geometricPrecision; text-rendering:geometricPrecision; image-rendering:optimizeQuality; fill-rule:evenodd; clip-rule:evenodd"
viewBox="0 0 2.553 0.622"
 xmlns:xlink="http://www.w3.org/1999/xlink"
 xmlns:xodm="http://www.corel.com/coreldraw/odm/2003">
 <defs>
  <style type="text/css">
   <![CDATA[
    .fil0 {fill:black}
   ]]>
  </style>
 </defs>
 <g id="Слой_x0020_1">
  <metadata id="CorelCorpID_0Corel-Layer"/>
  <g id="_105553254197792">
   <path class="fil0" d="M2.344 0.323l0.016 0.027 -0.016 -0.027zm0 0c-0.072,-0.083 -0.088,-0.259 -0.151,-0.293 -0.04,-0.021 -0.086,-0.018 -0.126,0.001 -0.027,0.056 0.018,0.394 0.028,0.486 0.015,0.151 0.16,0.067 0.162,0.065 0.035,-0.038 -0.008,-0.168 -0.01,-0.231 0.105,0.076 0.099,0.349 0.306,0.249 0,-0.175 -0.042,-0.264 -0.041,-0.458 0,-0.085 -0.01,-0.09 -0.043,-0.138l-0.097 0c-0.081,0.121 -0.028,0.153 -0.028,0.319l0 0z"/>
   <path class="fil0" d="M0.166 0.351c0,-0.099 -0.015,-0.212 0.056,-0.264 0.084,0.062 0.074,0.376 0,0.43 -0.043,-0.031 -0.056,-0.093 -0.056,-0.166zm-0.166 -0.056c0,0.431 0.444,0.39 0.444,0.014 0,-0.398 -0.444,-0.41 -0.444,-0.014z"/>
   <path class="fil0" d="M1.29 0.212c0,0.122 -0.009,0.388 0.18,0.388 0.127,0 0.25,-0.009 0.25,-0.194 0,-0.067 -0.186,-0.085 -0.215,-0.032 -0.021,0.04 0.012,0.043 0.049,0.046 -0.002,0.062 -0.005,0.07 -0.042,0.097 -0.075,-0.055 -0.053,-0.256 -0.043,-0.335 0.008,-0.063 0.002,-0.065 0.043,-0.095 0.063,0.059 0.002,0.072 0.074,0.107 0.147,0.072 0.211,-0.19 -0.116,-0.19 -0.099,0 -0.18,0.101 -0.18,0.208l0 0z"/>
   <path class="fil0" d="M1.027 0.184c0,0.428 -0.032,0.416 0.124,0.416 0.043,0 0.056,-0.04 0.056,-0.083l0 -0.458c0,-0.071 -0.141,-0.085 -0.167,0 -0.01,0.031 -0.013,0.083 -0.013,0.125l0 0z"/>
   <path class="fil0" d="M1.79 0.212c0,0.4 -0.03,0.388 0.124,0.388 0.043,0 0.056,-0.04 0.056,-0.083l0 -0.458c0,-0.067 -0.146,-0.094 -0.168,0.012 -0.01,0.047 -0.012,0.083 -0.012,0.141l0 0z"/>
   <g>
    <path class="fil0" d="M0.546 0.608c0.001,-0.018 0,-0.041 -0.001,-0.059 -0.002,-0.018 -0.005,-0.035 -0.007,-0.054 -0.003,-0.036 -0.003,-0.08 0.001,-0.116 0.003,-0.036 0.01,-0.069 0.02,-0.101 0.015,-0.047 0.035,-0.073 0.038,-0.083l0.014 0.001c0.001,-0.01 -0.02,-0.035 -0.023,-0.046 0.005,-0.006 0.022,-0.012 0.029,-0.012 0.009,-0.002 0.026,0.002 0.037,0.003 0.024,0 0.053,-0.003 0.077,-0.004 0.012,-0.001 0.027,-0.003 0.035,0.004 0.008,0.005 0.012,0.016 0.019,0.022 0.007,0.006 0.022,0.006 0.033,0.006 0.007,0.001 0.037,0 0.04,0.001 0.001,0.014 -0.001,0.027 -0.002,0.042 -0.001,0.009 -0.002,0.01 -0.006,0.017 -0.01,0.015 -0.017,0.025 -0.034,0.034 -0.01,0.005 -0.021,0.009 -0.031,0.014 -0.029,0.014 -0.055,0.039 -0.072,0.064 -0.005,0.006 -0.014,0.021 -0.015,0.03 0.008,-0.005 0.011,-0.009 0.016,-0.013 0.005,-0.004 0.01,-0.008 0.016,-0.011 0.016,-0.009 0.029,-0.016 0.041,-0.003 0.007,0.007 0.012,0.015 0.018,0.024 0.01,0.012 0.018,0.031 0.025,0.045 0.012,0.026 0.024,0.051 0.037,0.076 0.004,0.009 0.031,0.068 0.034,0.079l0.014 0.032c0.012,-0.003 0.027,-0.007 0.037,-0.012 0.011,-0.005 0.021,-0.01 0.032,-0.016 0,-0.008 -0.008,-0.023 -0.012,-0.031 -0.003,-0.007 -0.012,-0.021 -0.016,-0.027l-0.028 -0.037c-0.003,-0.004 -0.006,-0.007 -0.01,-0.011l-0.037 -0.039 -0.028 -0.025c-0.006,-0.006 -0.017,-0.016 -0.024,-0.02 0.003,-0.005 0.014,-0.014 0.019,-0.018l0.009 -0.006c0.03,-0.02 0.045,-0.032 0.054,-0.071 0.003,-0.012 0.005,-0.025 0.006,-0.038l0.004 -0.056c0,-0.01 -0.002,-0.032 -0.003,-0.041 -0.001,-0.005 -0.001,-0.009 -0.002,-0.013 -0.005,-0.029 -0.016,-0.054 -0.034,-0.077 -0.001,-0.001 -0.003,-0.002 -0.004,-0.004 -0.004,-0.005 -0.007,-0.007 -0.011,-0.011 -0.006,-0.005 -0.015,-0.011 -0.022,-0.015 -0.025,-0.015 -0.062,-0.025 -0.091,-0.027l-0.02 -0.002c-0.003,0 -0.005,0 -0.008,0l-0.014 -0.001 0 0 0 0 -0.001 0 0 0 0 0 0 0 -0.001 0 0 0 0 0 0 0 -0.001 0 0 0 0 0 0 0c-0.004,0 -0.008,0 -0.011,0l0 0 -0.001 0c-0.012,0 -0.03,0.002 -0.042,0.003 -0.022,0.002 -0.052,0.01 -0.072,0.016 -0.007,0.003 -0.015,0.006 -0.022,0.009 -0.02,0.008 -0.03,0.014 -0.049,0.024 -0.003,0.001 -0.008,0.004 -0.011,0.005 0,0.024 0.002,0.048 0.002,0.073 0,0.003 0.001,0.004 0.001,0.008 0,0.011 0.001,0.023 0.001,0.036l0.001 0.018c0.001,0.003 0,0.006 0.001,0.009l0.006 0.107c0,0.011 0.003,0.038 0.004,0.052 0.001,0.02 0.003,0.041 0.005,0.06 0.003,0.04 0.012,0.12 0.022,0.158 0.001,0.004 0.003,0.009 0.004,0.014 0.001,0.006 0.001,0.011 0.004,0.015 0.004,0 0.007,0 0.01,-0.001z"/>
    <path class="fil0" d="M0.608 0.503c0.001,0.009 0.016,0.037 0.021,0.046 0,0.002 0.001,0.003 0.002,0.004 0.012,0.023 0.018,0.033 0.044,0.044 0.02,0.008 0.059,0.013 0.081,0.003 0.015,-0.006 0.021,-0.018 0.012,-0.033 -0.006,-0.011 -0.007,-0.012 -0.03,-0.012 -0.009,0 -0.017,0.001 -0.026,0.001 -0.009,0 -0.014,0.001 -0.025,0 -0.006,-0.001 -0.016,-0.002 -0.022,-0.006 0,0 0,0 0,0l-0.001 0 -0.001 0c-0.011,-0.003 -0.029,-0.021 -0.036,-0.031 -0.005,-0.007 -0.014,-0.022 -0.018,-0.032l-0.003 -0.009c-0.001,-0.003 0.001,-0.001 -0.002,-0.001 -0.002,0 -0.001,-0.001 -0.001,0.002 0.001,0.008 0.003,0.016 0.005,0.024z"/>
    <path class="fil0" d="M0.702 0.196c0.014,0.002 0.029,0.003 0.043,0.001l-0.01 -0.02c-0.009,0.003 -0.029,0.015 -0.033,0.019z"/>
   </g>
  </g>
 </g>
</svg>
